<svg xmlns="http://www.w3.org/2000/svg" viewBox="0 0 189.75 38.68"><title>logo-lanza</title><g data-name="Layer 1"><path d="M0 38.68L12.93 0h4.27L6.07 34.48h16.97v4.2H0zM60.61 38.68L58 31.11H42.16l-2.38 7.57H35L47.8 0h4.8l12.83 38.68zm-3.92-11.55l-6.47-21h-.11l-6.68 21zM79.29 38.68V0h4.81l15.41 30.84h.11V0h4.42v38.68h-4.69L83.82 7.84h-.11v30.84h-4.42zM119.41 38.68v-3.75l21.66-30.62v-.12H120.4V0h26.41v3.76L125.1 34.31v.11h21.27v4.26h-26.96zM184.94 38.68l-2.6-7.57h-15.86l-2.37 7.57h-4.81L172.12 0h4.81l12.82 38.68zM181 27.13l-6.46-21h-.11l-6.69 21z"/></g></svg>