<svg xmlns="http://www.w3.org/2000/svg" viewBox="0 0 277.66 38.68"><title>logo-atelier</title><g data-name="Layer 1"><path d="M25.63 38.68L23 31.11H7.18l-2.37 7.57H0L12.82 0h4.81l12.81 38.68zm-3.91-11.55l-6.47-21h-.1l-6.69 21zM54.36 38.68V4.19h-13V0H72v4.19H59v34.49zM87.47 38.68V0h22.87v4.19H92.22v12.55h16.57v4.09H92.22v13.65h18.11v4.2zM130.78 38.68V0h4.75v34.48h18.29v4.2zM169.41 4.15V0h23.2v4.15h-9.28v30.38h9.28v4.15h-23.2v-4.15h9.23V4.15zM211.79 38.68V0h22.87v4.19h-18.11v12.55h16.57v4.09h-16.57v13.65h18.11v4.2zM252.35 38.68V0h12.27q6.08 0 9.55 2.93t3.49 8.57A10.53 10.53 0 0 1 275 19a12.1 12.1 0 0 1-7 3.58l8.62 16.14h-5.15l-8.39-15.8H257v15.8zM257 18.79h7.3a10.32 10.32 0 0 0 6.28-1.79q2.42-1.7 2.42-5.51c0-4.86-2.91-7.3-8.73-7.3H257z"/></g></svg>