<svg version="1" xmlns="http://www.w3.org/2000/svg" width="21.333" height="21.333" viewBox="0 0 16.000000 16.000000"><path d="M4.31 1.782c-.103.013-.162.18-1.336 3.691a499.221 499.221 0 0 0-1.225 3.7c0 .042 4.361.008 4.391-.034.022-.034.026-.572.009-.747-.005-.017-.73-.03-1.617-.03H2.919l.273-.845c.15-.46.384-1.186.52-1.608.278-.867.79-2.445 1.11-3.431.115-.363.205-.67.196-.679-.021-.02-.563-.034-.708-.017zM10.962 6.826c-.09.021-.218.388-1.31 3.687-.666 2.014-1.2 3.67-1.19 3.682.02.017.226.021.733.017.163-.004.175-.013.227-.188.03-.098.132-.418.226-.712l.166-.534h1.494c1.203 0 1.502.013 1.531.06.022.03.137.354.26.721l.227.67.448-.013c.247-.004.456-.012.46-.02.014-.014-2.406-7.332-2.431-7.362-.03-.025-.726-.034-.841-.008zm1.007 3.213c.316 1.033.589 1.89.602 1.912.025.042-.013.042-1.49.042-.537 0-.985-.004-.994-.017-.017-.013.38-1.288.487-1.566.021-.06.042-.128.047-.15.004-.025.119-.396.256-.831.14-.435.298-.93.35-1.101.076-.239.106-.294.132-.235.021.043.294.918.61 1.946z"/></svg>