<svg xmlns="http://www.w3.org/2000/svg" viewBox="0 0 189.75 38.68"><title>logo-lanza</title><g id="Layer_2" data-name="Layer 2"><g id="Layer_1-2" data-name="Layer 1"><polygon points="0 38.68 12.93 0 17.2 0 6.07 34.48 23.04 34.48 23.04 38.68 0 38.68"/><path d="M60.61,38.68,58,31.11H42.16l-2.38,7.57H35L47.8,0h4.8L65.43,38.68ZM56.69,27.13l-6.47-21h-.11l-6.68,21Z"/><polygon points="79.29 38.68 79.29 0 84.1 0 99.51 30.84 99.62 30.84 99.62 0 104.04 0 104.04 38.68 99.35 38.68 83.82 7.84 83.71 7.84 83.71 38.68 79.29 38.68"/><polygon points="119.41 38.68 119.41 34.93 141.07 4.31 141.07 4.19 120.4 4.19 120.4 0 146.81 0 146.81 3.76 125.1 34.31 125.1 34.42 146.37 34.42 146.37 38.68 119.41 38.68"/><path d="M184.94,38.68l-2.6-7.57H166.48l-2.37,7.57H159.3L172.12,0h4.81l12.82,38.68ZM181,27.13l-6.46-21h-.11l-6.69,21Z"/></g></g></svg>