<svg xmlns="http://www.w3.org/2000/svg" viewBox="0 0 277.66 38.68"><title>logo-atelier</title><g id="Layer_2" data-name="Layer 2"><g id="Layer_1-2" data-name="Layer 1"><path d="M25.63,38.68,23,31.11H7.18L4.81,38.68H0L12.82,0h4.81L30.44,38.68ZM21.72,27.13l-6.47-21h-.1l-6.69,21Z"/><path d="M54.36,38.68V4.19h-13V0H72V4.19H59V38.68Z"/><path d="M87.47,38.68V0h22.87V4.19H92.22V16.74h16.57v4.09H92.22V34.48h18.11v4.2Z"/><path d="M130.78,38.68V0h4.75V34.48h18.29v4.2Z"/><path d="M169.41,4.15V0h23.2V4.15h-9.28V34.53h9.28v4.15h-23.2V34.53h9.23V4.15Z"/><path d="M211.79,38.68V0h22.87V4.19H216.55V16.74h16.57v4.09H216.55V34.48h18.11v4.2Z"/><path d="M252.35,38.68V0h12.27q6.08,0,9.55,2.93t3.49,8.57A10.53,10.53,0,0,1,275,19a12.1,12.1,0,0,1-7,3.58l8.62,16.14h-5.15l-8.39-15.8H257v15.8ZM257,18.79h7.3A10.32,10.32,0,0,0,270.58,17Q273,15.3,273,11.49c0-4.86-2.91-7.3-8.73-7.3H257Z"/></g></g></svg>