<?xml version="1.0" standalone="no"?>
<!DOCTYPE svg PUBLIC "-//W3C//DTD SVG 20010904//EN"
 "http://www.w3.org/TR/2001/REC-SVG-20010904/DTD/svg10.dtd">
<svg version="1.0" xmlns="http://www.w3.org/2000/svg"
 width="16.000000pt" height="16.000000pt" viewBox="0 0 16.000000 16.000000"
 preserveAspectRatio="xMidYMid meet">
<metadata>
Created by potrace 1.11, written by Peter Selinger 2001-2013
</metadata>
<g transform="translate(0.000000,16.000000) scale(0.004267,-0.004267)"
fill="#000000" stroke="none">
<path d="M1010 3332 c-24 -3 -38 -42 -313 -865 -158 -474 -287 -864 -287 -867
0 -10 1022 -2 1029 8 5 8 6 134 2 175 -1 4 -171 7 -379 7 l-378 0 64 198 c35
108 90 278 122 377 65 203 185 573 260 804 27 85 48 157 46 159 -5 5 -132 8
-166 4z"/>
<path d="M2569 2150 c-21 -5 -51 -91 -307 -864 -156 -472 -281 -860 -279 -863
5 -4 53 -5 172 -4 38 1 41 3 53 44 7 23 31 98 53 167 l39 125 350 0 c282 0
352 -3 359 -14 5 -7 32 -83 61 -169 l53 -157 105 3 c58 1 107 3 108 5 3 3
-564 1718 -570 1725 -7 6 -170 8 -197 2z m236 -753 c74 -242 138 -443 141
-448 6 -10 -3 -10 -349 -10 -126 0 -231 1 -233 4 -4 3 89 302 114 367 5 14 10
30 11 35 1 6 28 93 60 195 33 102 70 218 82 258 18 56 25 69 31 55 5 -10 69
-215 143 -456z"/>
</g>
</svg>
